<svg version="1.1" id="_x30_893_x5F_Bad_x5F_Connection_x5F_2" xmlns="http://www.w3.org/2000/svg" xmlns:xlink="http://www.w3.org/1999/xlink" x="0px" y="0px" width="500px" height="500px" viewBox="0 0 500 500" xml:space="preserve" class="show_show__wrapper__graphic__5Waiy ">
  <title>React</title>

<g id="satellite"><polygon fill="#00adb5" points="217.11,339.54 327.32,219.92 323.14,173.17 253.14,167.78 209.57,204.35 143.15,261.32 143,262.54
		"></polygon><path fill="#00fff5" d="M193.03,290.21c1.89,1.72,3.69,3.54,5.55,6.42c11.97,14.23,18.9,32.62,19.52,51.38
		c-0.33,9.74-0.99,19.71-4.87,28.65c-1.51,3.48-3.47,6.73-5.43,9.98c-2.62,4.34-5.34,8.78-9.66,11.78c-6.12,4.57-13.8,6.8-21.44,7.1
		s-15.26-1.24-22.52-3.62c-19.66-6.45-36.93-19.06-50.96-34.27c0,0-11.96-15.12-12.46-16.31c-7.47-10.15-12.72-21.91-15.22-34.6
		c-2.05-7.81-2.2-16.2,0.19-23.91c2.39-7.71,7.4-14.7,14.28-18.91c0,0,8.88-6.25,9.14-6.18c7.77-3.26,15.81-6.57,25.02-6.48
		c15.97-1.51,32.4,2.34,46.04,10.8l12.88,8.74L193.03,290.21z"></path><path fill="000001" d="M143.25,279.78c2.77,14.99,9.89,29.18,20.41,40.21c10.52,11.03,24.42,18.83,39.36,21.85l-2.4-4.95l-7.09-11.64
		l-5.48-8.18l-8.78-10.21l-9.96-9.62l-10.38-8.27l-9.28-6.16L143.25,279.78z"></path><path fill="00fff5" d="M268.16,255.62l34.05-0.8l9.44-35.25l114.69,1.71l-17.78,101.73l-119.01-17.88l10.14-37.86
		c0,0-32.44-3.31-32.46-3.39c-0.98-1.2-1.43-2.82-1.21-4.36C266.24,257.98,267.12,256.55,268.16,255.62z"></path><path fill="393e46" d="M144.89,218.77c-6.25,4.76-13.03,8.83-20.18,12.09c-3.95,1.8-8.06,3.38-12.37,3.92
		c-4.31,0.54-8.86-0.02-12.59-2.24c-4.38-2.61-7.2-7.22-9.14-11.94c-1.82-4.4-3.03-9.05-3.6-13.78c0.74,1.41,2.83,1.59,4.18,0.75
		s2.08-2.38,2.6-3.88c2.29-6.53,1.88-13.64,2.49-20.54c0.68-7.67,2.65-15.22,6.41-22.36c0.67,2.02,1.67,4.22,3.67,4.96
		c2.6,0.97,5.31-1,7.28-2.95c10.46-10.37,17.95-24.24,30.92-31.21c-1.75,2.88-3.2,5.94-4.32,9.12c-0.9,2.56-1.58,5.38-0.69,7.94
		c1.47,4.23,6.9,6.03,11.21,4.78c4.3-1.25,7.58-4.73,10.19-8.37c-0.35,2.99-0.23,6.04,0.34,8.99c0.37,1.91,1.06,3.95,2.71,4.97
		c1.87,1.15,4.27,0.59,6.41,0.12c1.98,3.61,2.1,8.18,0.31,11.89c-0.89,1.84-2.19,3.44-3.12,5.26c-0.92,1.82-1.44,4.02-0.63,5.89
		c0.33,0.77,0.88,1.46,1.05,2.28c0.15,0.76-0.04,1.55-0.25,2.3C164.45,198.82,157.08,209.49,144.89,218.77z"></path><path fill="#00fff5" d="M268.16,255.62l34.05-0.8l9.44-35.25l114.69,1.71l-17.78,101.73l-119.01-17.88l10.14-37.86
      c0,0-32.44-3.31-32.46-3.39c-0.98-1.2-1.43-2.82-1.21-4.36C266.24,257.98,267.12,256.55,268.16,255.62z"></path>
    <path fill="#393e46" d="M144.89,218.77c-6.25,4.76-13.03,8.83-20.18,12.09c-3.95,1.8-8.06,3.38-12.37,3.92
      c-4.31,0.54-8.86-0.02-12.59-2.24c-4.38-2.61-7.2-7.22-9.14-11.94c-1.82-4.4-3.03-9.05-3.6-13.78c0.74,1.41,2.83,1.59,4.18,0.75
      s2.08-2.38,2.6-3.88c2.29-6.53,1.88-13.64,2.49-20.54c0.68-7.67,2.65-15.22,6.41-22.36c0.67,2.02,1.67,4.22,3.67,4.96
      c2.6,0.97,5.31-1,7.28-2.95c10.46-10.37,17.95-24.24,30.92-31.21c-1.75,2.88-3.2,5.94-4.32,9.12c-0.9,2.56-1.58,5.38-0.69,7.94
      c1.47,4.23,6.9,6.03,11.21,4.78c4.3-1.25,7.58-4.73,10.19-8.37c-0.35,2.99-0.23,6.04,0.34,8.99c0.37,1.91,1.06,3.95,2.71,4.97
      c1.87,1.15,4.27,0.59,6.41,0.12c1.98,3.61,2.1,8.18,0.31,11.89c-0.89,1.84-2.19,3.44-3.12,5.26c-0.92,1.82-1.44,4.02-0.63,5.89
      c0.33,0.77,0.88,1.46,1.05,2.28c0.15,0.76-0.04,1.55-0.25,2.3C164.45,198.82,157.08,209.49,144.89,218.77z"></path>
    <path fill="#00fff5" d="M106.85,231.35c-3.41-2.15-5.98-5.59-7.06-9.47c1.72,1.28,4.34,0.6,5.79-0.99c1.45-1.59,1.97-3.8,2.25-5.93
      c1.4-10.91-2.26-22.48,1.64-32.77c0.38,2.72,1.35,5.73,3.84,6.89c2.54,1.18,5.54-0.11,7.84-1.72c3.14-2.2,5.84-5.05,7.86-8.31
      c4.07-6.54,5.68-14.94,11.79-19.64c-1.14,3.84-1.48,7.92-0.98,11.9c0.2,1.62,0.82,3.53,2.41,3.9c0.87,0.2,1.77-0.14,2.57-0.54
      c4.63-2.31,8.22-6.63,9.63-11.61c0.54,2.25,0.87,4.56,1,6.87c0.13,2.39,0.1,5,1.6,6.86c0.68,0.84,1.63,1.48,2.09,2.46
      c0.59,1.27,0.18,2.8-0.51,4.03c-0.69,1.23-1.64,2.3-2.21,3.59c-1.78,3.98,0.44,8.81-1.38,12.72c0.14-2.59-1.51-4.99-1.59-7.58
      c-0.07-1.97,0.77-3.85,1.01-5.81c0.39-3.12-0.72-6.21-1.81-9.16c-0.11-0.29-0.25-0.61-0.54-0.71c-0.37-0.12-0.73,0.19-0.99,0.47
      c-1.57,1.64-3.36,3.17-5.53,3.82c-2.17,0.66-4.79,0.25-6.26-1.47c-0.45-0.53-0.81-1.19-1.42-1.51c-0.79-0.41-1.79-0.14-2.48,0.43
      c-0.68,0.57-1.12,1.38-1.53,2.16c-1.69,3.25-3.33,6.57-5.75,9.32c-2.42,2.74-5.78,4.88-9.44,4.96c-1.46,0.03-3.08-0.22-4.27,0.63
      c-1.05,0.76-1.4,2.16-1.54,3.45c-0.43,3.91,0.38,7.83,0.5,11.76c0.11,3.93-0.64,8.2-3.51,10.88c-1.31,1.22-3.14,2.32-3.21,4.11
      c-0.04,0.97,0.49,1.87,0.78,2.8S107.69,230.28,106.85,231.35z"></path>
    <path fill="#00fff5" d="M143.36,261.92l66.44-57.03l2.89-17.12c0,0-45.58-1.07-46.28-0.68c-9.58,14.3-20.68,27.91-34.86,37.66
      c-4.48,3.08-9.3,5.78-14.55,7.23c-5.24,1.45-10.97,1.57-16.04-0.4l-7.58,28.85l16.37,2.35c0,0,1.6,0.43,1.94-0.15
      c5.86-1.35,11.85-2.16,17.85-2.4L143.36,261.92z"></path>
    <path fill="#393e46" d="M100.67,375.66c-2.84-1.96-6.7-2.38-9.84-0.97s-5.42,4.65-5.56,8.09s1.93,6.91,5.07,8.31
      c1.31,0.58,2.75,0.83,4.18,0.88c1.06,0.04,2.14-0.02,3.17-0.3c3.16-0.84,5.6-3.73,6.16-6.95S103.56,377.66,100.67,375.66z"></path>
    <polygon fill="#00adb5" points="98.12,373.57 170.69,298.54 171.79,299.22 180.14,307.97 103.28,378.88 100.62,375.84"></polygon>
    <path fill="#000001" d="M175.21,406.09c-20.48,0-46.29-12.04-67.9-33.64c-32.46-32.46-43.32-74.41-24.22-93.51
      c19.1-19.11,61.06-8.24,93.51,24.22c32.46,32.46,43.32,74.41,24.22,93.52C194.44,403.05,185.49,406.09,175.21,406.09z
      M108.02,371.74c32.07,32.07,73.39,42.93,92.1,24.22c18.71-18.71,7.85-60.03-24.22-92.1c-32.07-32.07-73.39-42.93-92.1-24.22
      C65.08,298.35,75.95,339.67,108.02,371.74L108.02,371.74z"></path>
    <path fill="#000001" d="M94.76,392.67c-5.41,0-9.82-4.4-9.82-9.82s4.4-9.82,9.82-9.82s9.82,4.4,9.82,9.82S100.18,392.67,94.76,392.67z
      M94.76,374.03c-4.86,0-8.82,3.96-8.82,8.82s3.96,8.82,8.82,8.82s8.82-3.96,8.82-8.82S99.63,374.03,94.76,374.03z"></path>
    <path fill="#000001" d="M98.12,374.24c-0.13,0-0.25-0.05-0.35-0.14c-0.2-0.19-0.2-0.51-0.01-0.71l72.52-74.94
      c0.19-0.2,0.51-0.2,0.71-0.01c0.2,0.19,0.2,0.51,0.01,0.71l-72.52,74.94C98.38,374.19,98.25,374.24,98.12,374.24z"></path>
    <path fill="#000001" d="M103.43,379.36c-0.13,0-0.27-0.05-0.37-0.16c-0.19-0.2-0.18-0.52,0.03-0.71l76.19-70.78
      c0.2-0.19,0.52-0.18,0.71,0.03c0.19,0.2,0.18,0.52-0.03,0.71l-76.19,70.78C103.68,379.32,103.55,379.36,103.43,379.36z"></path>
    <path fill="#000001" d="M198.02,399c-0.13,0-0.27-0.05-0.37-0.16c-0.19-0.2-0.18-0.52,0.02-0.71c13.66-12.75,20.68-30.97,19.77-51.32
      c-0.91-20.38-9.66-40.44-24.64-56.5c-14.98-16.05-34.39-26.17-54.66-28.49c-20.24-2.31-38.91,3.43-52.56,16.18
      c-0.2,0.19-0.52,0.18-0.71-0.02c-0.19-0.2-0.18-0.52,0.02-0.71c13.88-12.95,32.83-18.79,53.36-16.44
      c20.5,2.34,40.13,12.57,55.28,28.8c15.14,16.23,23.99,36.52,24.91,57.13c0.92,20.65-6.21,39.15-20.09,52.1
      C198.27,398.96,198.14,399,198.02,399z"></path><path fill="000001" d="M199.39,292.94c-0.13,0-0.26-0.05-0.36-0.15c-0.19-0.2-0.19-0.51,0.01-0.71l120.89-117.37
		c0.2-0.19,0.52-0.19,0.71,0.01c0.19,0.2,0.19,0.51-0.01,0.71L199.74,292.8C199.64,292.89,199.52,292.94,199.39,292.94z"></path><path fill="FFFFFF" d="M193.31,286.37c-0.13,0-0.26-0.05-0.36-0.16c-0.19-0.2-0.18-0.52,0.02-0.71l112.07-106.19l-48.79-3.9
		l-100.72,86.97c-0.21,0.18-0.52,0.16-0.71-0.05c-0.18-0.21-0.16-0.53,0.05-0.71l100.87-87.1c0.1-0.09,0.23-0.13,0.37-0.12l50.12,4
		c0.2,0.02,0.37,0.15,0.43,0.33s0.02,0.39-0.13,0.53L193.65,286.24C193.55,286.33,193.43,286.37,193.31,286.37z"></path><path fill="FFFFFF" d="M204.84,300.94c-0.13,0-0.26-0.05-0.36-0.15c-0.19-0.2-0.19-0.51,0-0.71l112.72-111.12
		c0.14-0.14,0.34-0.18,0.52-0.12c0.18,0.06,0.31,0.23,0.33,0.42l3.04,28.02c0.03,0.27-0.17,0.52-0.44,0.55
		c-0.25,0.03-0.52-0.17-0.55-0.44l-2.93-26.99L205.19,300.8C205.09,300.9,204.96,300.94,204.84,300.94z"></path><path fill="FFFFFF" d="M218,330.85c-0.13,0-0.25-0.05-0.35-0.14c-0.2-0.19-0.2-0.51-0.01-0.71l61.89-62.96
		c0.19-0.2,0.51-0.2,0.71-0.01s0.2,0.51,0.01,0.71l-61.89,62.96C218.26,330.8,218.13,330.85,218,330.85z"></path><path fill="FFFFFF" d="M294.94,252.23c-0.13,0-0.26-0.05-0.36-0.16c-0.19-0.2-0.18-0.52,0.02-0.71l8.52-8.06
		c0.2-0.19,0.52-0.18,0.71,0.02c0.19,0.2,0.18,0.52-0.02,0.71l-8.52,8.06C295.19,252.19,295.07,252.23,294.94,252.23z"></path><path fill="FFFFFF" d="M288.97,267.01c-0.02,0-0.04,0-0.06,0l-21.72-2.62c-0.12-0.01-0.24-0.08-0.32-0.17
		c-1.13-1.32-1.63-3.14-1.32-4.85s1.39-3.25,2.91-4.11c0.07-0.04,0.15-0.06,0.23-0.06c0.23-0.01,29.46-0.67,33.32-0.76l9.33-34.77
		c0.06-0.22,0.25-0.37,0.49-0.37l15.66,0.3c0.28,0.01,0.5,0.23,0.49,0.51c-0.01,0.28-0.24,0.5-0.51,0.49l-15.27-0.3l-9.33,34.75
		c-0.06,0.21-0.25,0.37-0.47,0.37c-0.32,0.01-31.33,0.71-33.56,0.77c-1.21,0.72-2.06,1.96-2.31,3.35c-0.24,1.36,0.12,2.8,0.98,3.88
		l21.52,2.59c0.27,0.03,0.47,0.28,0.44,0.56C289.44,266.83,289.22,267.01,288.97,267.01z"></path><path fill="000001" d="M299.65,267.49c-0.04,0-0.08,0-0.12-0.01c-0.27-0.07-0.43-0.34-0.37-0.61l2.5-10.13
		c0.07-0.27,0.33-0.43,0.61-0.37c0.27,0.07,0.43,0.34,0.37,0.61l-2.5,10.13C300.08,267.34,299.87,267.49,299.65,267.49z"></path><path fill="FFFFFF" d="M145,261.1c-0.14,0-0.28-0.06-0.38-0.18c-0.18-0.21-0.15-0.53,0.06-0.71l65.26-55.58
		c0.21-0.18,0.52-0.15,0.71,0.06c0.18,0.21,0.15,0.53-0.06,0.71l-65.26,55.58C145.23,261.06,145.11,261.1,145,261.1z"></path><path fill="00adb5" d="M305.35,303.33c-0.04,0-0.08,0-0.12-0.01c-0.27-0.06-0.43-0.33-0.37-0.6l18.54-77.68
		c0.06-0.27,0.33-0.44,0.6-0.37c0.27,0.06,0.43,0.33,0.37,0.6l-18.54,77.68C305.78,303.17,305.58,303.33,305.35,303.33z"></path><path fill="00adb5" d="M318.89,305.89c-0.04,0-0.07,0-0.11-0.01c-0.27-0.06-0.44-0.33-0.38-0.6l18.29-79.51
		c0.06-0.27,0.33-0.44,0.6-0.38c0.27,0.06,0.44,0.33,0.38,0.6l-18.29,79.51C319.32,305.73,319.12,305.89,318.89,305.89z"></path><path fill="00adb5" d="M333.03,308.33c-0.04,0-0.07,0-0.11-0.01c-0.27-0.06-0.44-0.33-0.38-0.6l17.93-81.34
		c0.06-0.27,0.32-0.44,0.6-0.38c0.27,0.06,0.44,0.33,0.38,0.6l-17.93,81.34C333.47,308.17,333.26,308.33,333.03,308.33z"></path><path fill="00adb5" d="M346.94,311.38c-0.03,0-0.07,0-0.1-0.01c-0.27-0.05-0.45-0.32-0.39-0.59l16.83-83.9
		c0.05-0.27,0.32-0.45,0.59-0.39c0.27,0.05,0.45,0.32,0.39,0.59l-16.83,83.9C347.38,311.21,347.17,311.38,346.94,311.38z"></path><path fill="00adb5" d="M362.06,313.33c-0.03,0-0.06,0-0.09-0.01c-0.27-0.05-0.45-0.31-0.41-0.58l15.12-86.09
		c0.05-0.27,0.31-0.45,0.58-0.41c0.27,0.05,0.45,0.31,0.41,0.58l-15.12,86.09C362.51,313.16,362.29,313.33,362.06,313.33z"></path><path fill="00adb5" d="M378.28,315.77c-0.03,0-0.06,0-0.09-0.01c-0.27-0.05-0.45-0.31-0.4-0.58l15.97-89.26
		c0.05-0.27,0.31-0.45,0.58-0.4c0.27,0.05,0.45,0.31,0.4,0.58l-15.97,89.26C378.72,315.6,378.51,315.77,378.28,315.77z"></path><path fill="00adb5" d="M395.1,318.81c-0.03,0-0.06,0-0.09-0.01c-0.27-0.05-0.45-0.31-0.41-0.58l16.34-93.17
		c0.05-0.27,0.32-0.45,0.58-0.41c0.27,0.05,0.45,0.31,0.41,0.58l-16.34,93.17C395.55,318.64,395.34,318.81,395.1,318.81z"></path><path fill="00adb5" d="M407.18,297.23c-0.02,0-0.04,0-0.07,0L299.8,283.2c-0.27-0.04-0.47-0.29-0.43-0.56
		c0.04-0.27,0.29-0.47,0.56-0.43l107.31,14.02c0.27,0.04,0.47,0.29,0.43,0.56C407.64,297.05,407.42,297.23,407.18,297.23z"></path><path fill="00adb5" d="M413.39,270.28c-0.02,0-0.03,0-0.05,0l-108.16-9.75c-0.28-0.02-0.48-0.27-0.45-0.54
		c0.02-0.28,0.27-0.47,0.54-0.45l108.16,9.75c0.28,0.02,0.48,0.27,0.45,0.54C413.87,270.09,413.65,270.28,413.39,270.28z"></path><path fill="00adb5" d="M417.3,244.67c-0.01,0-0.01,0-0.02,0l-105.97-4.15c-0.28-0.01-0.49-0.24-0.48-0.52
		c0.01-0.27,0.2-0.5,0.52-0.48l105.97,4.15c0.28,0.01,0.49,0.24,0.48,0.52C417.78,244.46,417.56,244.67,417.3,244.67z"></path><path fill="00adb5" d="M157.42,248.66c-0.02,0-0.04,0-0.06,0l-55.01-6.59c-0.27-0.03-0.47-0.28-0.44-0.56
		c0.03-0.27,0.28-0.47,0.56-0.44l55.01,6.59c0.27,0.03,0.47,0.28,0.44,0.56C157.89,248.47,157.67,248.66,157.42,248.66z"></path><path fill="00adb5" d="M181.2,228.34c-0.01,0-0.03,0-0.04,0l-44.96-3.89c-0.28-0.02-0.48-0.27-0.46-0.54
		c0.02-0.27,0.26-0.49,0.54-0.46l44.96,3.89c0.28,0.02,0.48,0.27,0.46,0.54C181.67,228.14,181.45,228.34,181.2,228.34z"></path><path fill="00adb5" d="M204.11,208.24c-0.01,0-0.01,0-0.02,0l-48.74-1.95c-0.28-0.01-0.49-0.24-0.48-0.52
		c0.01-0.28,0.25-0.5,0.52-0.48l48.74,1.95c0.28,0.01,0.49,0.24,0.48,0.52C204.59,208.03,204.37,208.24,204.11,208.24z"></path><path fill="00adb5" d="M195.46,216.34c-0.03,0-0.05,0-0.08-0.01c-0.27-0.04-0.46-0.3-0.42-0.57l3.57-23.02
		c0.04-0.27,0.3-0.46,0.57-0.42c0.27,0.04,0.46,0.3,0.42,0.57l-3.57,23.02C195.92,216.17,195.7,216.34,195.46,216.34z"></path><path fill="00adb5" d="M178.06,230.82c-0.03,0-0.06,0-0.08-0.01c-0.27-0.05-0.46-0.3-0.41-0.58l6.38-37.72
		c0.05-0.27,0.3-0.45,0.58-0.41c0.27,0.05,0.46,0.3,0.41,0.58l-6.38,37.72C178.51,230.65,178.3,230.82,178.06,230.82z"></path><path fill="00adb5" d="M160.88,244.87c-0.03,0-0.05,0-0.08-0.01c-0.27-0.04-0.46-0.3-0.41-0.57l8.75-53.17
		c0.04-0.27,0.3-0.46,0.57-0.41c0.27,0.04,0.46,0.3,0.41,0.57l-8.75,53.17C161.33,244.7,161.12,244.87,160.88,244.87z"></path><path fill="00adb5" d="M144.78,259.14c-0.03,0-0.06,0-0.1-0.01c-0.27-0.05-0.45-0.32-0.4-0.59l10.16-52.2
		c0.05-0.27,0.31-0.45,0.59-0.4c0.27,0.05,0.45,0.31,0.4,0.59l-10.16,52.2C145.22,258.97,145.01,259.14,144.78,259.14z"></path><path fill="00adb5" d="M132.24,258.16c-0.04,0-0.07,0-0.11-0.01c-0.27-0.06-0.44-0.33-0.38-0.6l8.75-38.69
		c0.06-0.27,0.33-0.44,0.6-0.38c0.27,0.06,0.44,0.33,0.38,0.6l-8.75,38.69C132.68,258.01,132.47,258.16,132.24,258.16z"></path><path fill="00adb5" d="M119.16,259.68c-0.03,0-0.07,0-0.1-0.01c-0.27-0.06-0.44-0.32-0.39-0.59l6.16-29.29
		c0.06-0.27,0.32-0.44,0.59-0.39c0.27,0.06,0.44,0.32,0.39,0.59l-6.16,29.29C119.6,259.52,119.4,259.68,119.16,259.68z"></path><path fill="00adb5" d="M107.6,259.57c-0.03,0-0.07,0-0.1-0.01c-0.27-0.06-0.44-0.32-0.38-0.59l5.29-24.75
		c0.06-0.27,0.32-0.45,0.59-0.38c0.27,0.06,0.44,0.32,0.38,0.59l-5.29,24.75C108.04,259.41,107.83,259.57,107.6,259.57z"></path><path fill="000001" d="M109.8,233.82c-3.19,0-6.23-0.58-8.95-1.74c-0.25-0.11-0.37-0.4-0.26-0.66c0.11-0.25,0.4-0.37,0.66-0.26
		c5.91,2.52,13.44,2.15,20.65-1.02c6.63-2.92,12.3-7.68,17.55-12.3c1.68-1.48,3.89-3.45,6.01-5.49
		c7.74-7.47,14.63-16.21,20.49-25.99c0.14-0.24,0.45-0.31,0.69-0.17c0.24,0.14,0.31,0.45,0.17,0.69
		c-5.9,9.85-12.85,18.67-20.66,26.19c-2.13,2.06-4.35,4.03-6.04,5.52c-5.31,4.68-11.05,9.5-17.81,12.47
		C118.13,232.89,113.85,233.82,109.8,233.82z"></path><path fill="000001" d="M107.88,233.32c-0.17,0-0.34-0.09-0.43-0.25l-0.66-1.1c-0.46-0.91-0.18-1.75,0.04-2.42
		c0.12-0.36,0.23-0.69,0.23-1c0-0.32-0.12-0.67-0.25-1.03c-0.08-0.22-0.16-0.44-0.21-0.66c-0.51-1.95,0.6-3.79,1.3-4.71
		c0.46-0.61,0.99-1.16,1.49-1.7c0.55-0.59,1.08-1.14,1.53-1.76c1.51-2.06,2.25-4.93,2.2-8.53c-0.02-1.49-0.16-3.01-0.29-4.48
		c-0.14-1.57-0.29-3.19-0.29-4.79c-0.01-2.91,0.69-4.88,2.16-6.02c1.16-0.9,2.61-1.11,4.01-1.32l0.48-0.07
		c3.59-0.56,6.45-1.78,8.49-3.63c2.22-2.02,3.53-4.82,4.69-7.52l0.04-0.1c0.55-1.27,1.11-2.59,2.14-3.59c1.02-1,2.81-1.72,4.33-0.96
		c0.43,0.22,0.78,0.52,1.12,0.81c0.11,0.1,0.22,0.19,0.33,0.28c1.74,1.42,4.23,1.83,6.34,1.04c1.31-0.5,2.57-1.47,3.74-2.89
		c0.24-0.29,0.52-0.63,0.97-0.77c0.79-0.23,1.59,0.31,2.1,1.4c1.24,2.68,1.63,5.76,1.1,8.66c-0.13,0.71-0.32,1.41-0.49,2.1
		c-0.42,1.59-0.81,3.09-0.58,4.6c0.14,0.91,0.51,1.79,0.9,2.73c0.58,1.4,1.19,2.86,1.16,4.63c-0.05,0.68-0.03,1.34,0.06,1.99
		c0.04,0.27-0.15,0.53-0.43,0.57c-0.27,0.04-0.53-0.15-0.56-0.42c-0.1-0.72-0.12-1.45-0.07-2.17c0.02-1.54-0.54-2.89-1.09-4.2
		c-0.41-1-0.8-1.94-0.96-2.96c-0.26-1.71,0.18-3.39,0.6-5c0.17-0.67,0.35-1.35,0.48-2.02c0.5-2.7,0.14-5.57-1.02-8.06
		c-0.23-0.5-0.62-0.94-0.91-0.86c-0.15,0.05-0.31,0.24-0.47,0.43c-1.29,1.57-2.69,2.64-4.17,3.2c-2.43,0.92-5.31,0.45-7.33-1.2
		c-0.12-0.1-0.24-0.2-0.35-0.3c-0.3-0.26-0.59-0.51-0.91-0.67c-1.08-0.54-2.41,0.02-3.18,0.78c-0.89,0.87-1.41,2.09-1.92,3.27
		l-0.04,0.1c-1.15,2.67-2.57,5.71-4.94,7.86c-2.19,1.99-5.22,3.3-9.01,3.88l-0.49,0.07c-1.27,0.19-2.59,0.38-3.54,1.12
		c-1.2,0.93-1.78,2.64-1.77,5.22c0.01,1.57,0.15,3.16,0.29,4.71c0.13,1.49,0.27,3.03,0.29,4.56c0.05,3.82-0.76,6.9-2.4,9.14
		c-0.49,0.67-1.06,1.27-1.61,1.86c-0.49,0.52-0.99,1.05-1.42,1.62c-0.59,0.78-1.53,2.31-1.13,3.85c0.05,0.19,0.12,0.38,0.19,0.57
		c0.16,0.43,0.32,0.87,0.31,1.38c-0.01,0.45-0.15,0.88-0.28,1.29c-0.2,0.6-0.37,1.13-0.11,1.63l0.64,1.08
		c0.14,0.24,0.06,0.54-0.18,0.69C108.05,233.3,107.96,233.32,107.88,233.32z"></path><path fill="393e46" d="M85.23,178.81c-0.04,0-0.08,0-0.12-0.01c-0.27-0.07-0.43-0.34-0.37-0.6c6.22-25.37,18.72-49.07,36.17-68.52
		c0.19-0.21,0.5-0.22,0.71-0.04c0.21,0.18,0.22,0.5,0.04,0.71c-17.33,19.33-29.76,42.88-35.94,68.09
		C85.66,178.66,85.45,178.81,85.23,178.81z"></path><path fill="393e46" d="M128.92,125.42c-0.09,0-0.18-0.02-0.26-0.07c-0.24-0.14-0.31-0.45-0.17-0.69
		c5.49-8.98,11.17-18.26,19.11-25.54c0.2-0.19,0.52-0.17,0.71,0.03c0.19,0.2,0.17,0.52-0.03,0.71
		c-7.84,7.18-13.48,16.41-18.94,25.32C129.26,125.33,129.09,125.42,128.92,125.42z"></path><path fill="393e46" d="M152.99,120.68c-0.11,0-0.22-0.04-0.31-0.11c-0.21-0.17-0.25-0.49-0.07-0.7c7.55-9.29,16.27-17.6,25.91-24.7
		c0.22-0.16,0.54-0.12,0.7,0.11c0.16,0.22,0.12,0.54-0.11,0.7c-9.57,7.05-18.23,15.3-25.73,24.52
		C153.28,120.61,153.14,120.68,152.99,120.68z"></path><path fill="393e46" d="M159.96,137.02c-0.11,0-0.22-0.04-0.32-0.11c-0.21-0.18-0.24-0.49-0.07-0.7
		c11.49-13.91,24.57-26.56,38.86-37.58c0.22-0.17,0.53-0.13,0.7,0.09c0.17,0.22,0.13,0.53-0.09,0.7
		c-14.23,10.98-27.25,23.57-38.7,37.42C160.25,136.96,160.11,137.02,159.96,137.02z"></path><path fill="393e46" d="M174.52,155.46c-0.11,0-0.21-0.03-0.3-0.1c-0.22-0.17-0.26-0.48-0.09-0.7c6.77-8.86,14.81-16.62,23.91-23.07
		c0.23-0.16,0.54-0.11,0.7,0.12c0.16,0.23,0.11,0.54-0.12,0.7c-9.01,6.39-16.98,14.09-23.69,22.86
		C174.82,155.39,174.67,155.46,174.52,155.46z"></path><path fill="393e46" d="M177.69,177.02c-0.09,0-0.17-0.02-0.25-0.07c-0.24-0.14-0.32-0.45-0.17-0.69c5.74-9.66,13-18.24,21.57-25.5
		c0.21-0.18,0.53-0.15,0.7,0.06c0.18,0.21,0.15,0.53-0.06,0.7c-8.49,7.19-15.67,15.69-21.35,25.25
		C178.03,176.93,177.86,177.02,177.69,177.02z"></path></g><g id="sign"><path fill="00adb5" d="M337.81,126.94c-0.75,0-1.49-0.33-1.98-0.97c-0.84-1.09-0.64-2.66,0.45-3.51c7.73-5.97,17.37-9.37,27.14-9.59
		c9.8-0.21,19.55,2.75,27.54,8.37c1.13,0.79,1.4,2.35,0.61,3.48c-0.79,1.13-2.35,1.4-3.48,0.61c-7.13-5.01-15.82-7.67-24.55-7.46
		c-8.71,0.19-17.3,3.23-24.19,8.55C338.88,126.77,338.34,126.94,337.81,126.94z"></path><path fill="00adb5" d="M345.79,137.77c-0.87,0-1.71-0.45-2.17-1.26c-0.68-1.2-0.26-2.73,0.94-3.41c11.84-6.74,27.16-6.77,39.03-0.06
		c1.2,0.68,1.63,2.2,0.95,3.41c-0.68,1.2-2.21,1.62-3.41,0.95c-10.37-5.86-23.75-5.84-34.1,0.05
		C346.64,137.67,346.21,137.77,345.79,137.77z"></path><path fill="00adb5" d="M375.75,148.97c-0.35,0-0.7-0.07-1.04-0.23c-6.9-3.16-15.2-3.29-22.19-0.35c-1.27,0.54-2.74-0.06-3.27-1.34
		c-0.54-1.27,0.06-2.74,1.34-3.27c8.26-3.47,18.06-3.32,26.21,0.41c1.25,0.57,1.81,2.06,1.23,3.31
		C377.61,148.43,376.7,148.97,375.75,148.97z"></path><path fill="00adb5" d="M364.31,164.91c-3.43,0-6.22-2.79-6.22-6.22s2.79-6.22,6.22-6.22s6.22,2.79,6.22,6.22
		S367.74,164.91,364.31,164.91z M364.31,157.48c-0.67,0-1.22,0.55-1.22,1.22s0.55,1.22,1.22,1.22s1.22-0.55,1.22-1.22
		S364.98,157.48,364.31,157.48z"></path><path fill="393e46" d="M364.31,186.46c-25.52,0-46.28-20.76-46.28-46.28s20.76-46.28,46.28-46.28s46.28,20.76,46.28,46.28
		S389.83,186.46,364.31,186.46z M364.31,98.91c-22.76,0-41.28,18.52-41.28,41.28s18.52,41.28,41.28,41.28s41.28-18.52,41.28-41.28
		S387.07,98.91,364.31,98.91z"></path><path fill="393e46" d="M329.85,169.16c-0.68,0-1.36-0.28-1.86-0.83c-0.92-1.03-0.84-2.61,0.18-3.53l63.62-57.32
		c1.03-0.93,2.61-0.84,3.53,0.18c0.92,1.03,0.84,2.61-0.18,3.53l-63.62,57.32C331.04,168.95,330.45,169.16,329.85,169.16z"></path></g></svg>